<?xml version="1.0"?>
<svg width="1440" height="923" xmlns="http://www.w3.org/2000/svg" xmlns:svg="http://www.w3.org/2000/svg">
 <defs>
  <linearGradient id="paint0_linear_4_352" x1="0.18" x2="1" y1="0.24" y2="1">
   <stop stop-color="white" stop-opacity="0"/>
   <stop offset="1" stop-color="white" stop-opacity="0.2"/>
  </linearGradient>
  <linearGradient id="paint1_linear_4_352" x1="0.29" x2="1" y1="0.89" y2="0">
   <stop stop-color="white" stop-opacity="0"/>
   <stop offset="1" stop-color="white" stop-opacity="0.2"/>
  </linearGradient>
  <linearGradient id="paint2_linear_4_352" x1="1" x2="0.09" y1="0.44" y2="0.68">
   <stop stop-color="white"/>
   <stop offset="1" stop-color="white" stop-opacity="0"/>
  </linearGradient>
  <linearGradient id="paint3_linear_4_352" x1="0.18" x2="1" y1="0.24" y2="1">
   <stop stop-color="white" stop-opacity="0"/>
   <stop offset="1" stop-color="white" stop-opacity="0.2"/>
  </linearGradient>
  <clipPath id="clip0_4_352">
   <rect fill="white" height="923" id="svg_1" width="1440"/>
  </clipPath>
 </defs>
 <g class="layer">
  <title>Layer 1</title>
  <g clip-path="url(#clip0_4_352)" id="svg_2">
   <rect fill="black" height="923" id="svg_3" width="1440"/>
   <circle cx="203.54" cy="341.54" fill="url(#paint0_linear_4_352)" id="svg_4" opacity="0.25" r="537.18" transform="rotate(-143.902 203.542 341.54)"/>
   <path d="m1068.5,-512.5c296.58,0 537,240.2 537,536.5c0,296.3 -240.42,536.5 -537,536.5c-296.58,0 -537,-240.2 -537,-536.5c0,-296.3 240.42,-536.5 537,-536.5z" fill="url(#paint1_linear_4_352)" id="svg_5" opacity="0.6" stroke="url(#paint2_linear_4_352)"/>
   <circle cx="46.54" cy="646.54" fill="url(#paint3_linear_4_352)" id="svg_6" opacity="0.2" r="536.68" stroke="white" transform="rotate(-143.902 46.5424 646.537)"/>
  </g>
 </g>
</svg>