<?xml version="1.0" encoding="UTF-8"?>
<!DOCTYPE svg PUBLIC "-//W3C//DTD SVG 1.1//EN" "http://www.w3.org/Graphics/SVG/1.1/DTD/svg11.dtd">
<!-- Creator: CorelDRAW 2021 (64-Bit) -->
<svg xmlns="http://www.w3.org/2000/svg" xml:space="preserve" width="25.4mm" height="5.9267mm" version="1.1" style="shape-rendering:geometricPrecision; text-rendering:geometricPrecision; image-rendering:optimizeQuality; fill-rule:evenodd; clip-rule:evenodd"
viewBox="0 0 476.1 111.09"
 xmlns:xlink="http://www.w3.org/1999/xlink"
 xmlns:xodm="http://www.corel.com/coreldraw/odm/2003">
 <defs>
  <style type="text/css">
   <![CDATA[
    .fil0 {fill:none}
    .fil1 {fill:#07D16F}
    .fil2 {fill:white}
   ]]>
  </style>
 </defs>
 <g id="Layer_x0020_1">
  <metadata id="CorelCorpID_0Corel-Layer"/>
  <rect class="fil0" transform="matrix(1.51849E-14 0.176681 -0.757199 6.17976E-15 476.104 0.000606038)" width="628.77" height="628.77"/>
  <g id="_2340748753744">
   <path class="fil1" d="M322.96 50.59c0.38,-1.64 1.15,-2.59 1.85,-4.1 3.53,-7.61 7.27,-17.03 11.11,-24.6 1.82,-3.6 0.97,-3.83 2.91,-3.83 7.08,0 16.67,8.67 9.93,21.84 -5.98,11.69 -15.95,10.7 -25.8,10.7zm5.55 -34.52l13.53 0c7.12,0.4 13.46,2.11 17.02,8.34 3.49,6.1 2.07,13.39 -2.28,18.34 -3.03,3.44 -4.22,4.34 -8.34,6.74 -6.47,3.77 -18.64,3.49 -26.67,3.49 -0.95,1.79 -1.58,3.83 -2.51,5.82l-5.03 10.84c-0.47,0.94 -0.81,1.6 -1.28,2.68 -0.72,1.67 -0.4,1.29 -1.89,2.08l-3.18 -7.53c-2.5,-5.49 -0.96,-4.35 3.41,-14.85l9.86 -22.28c1.09,-2.63 2.15,-4.78 3.29,-7.42 0.85,-1.98 2.26,-6.23 4.08,-6.23z"/>
   <path class="fil1" d="M456.27 16.07l-2.78 0c-1.34,2 -1.71,3.42 -2.77,5.56 -3.37,6.77 -7,15.72 -10.46,22.87l-8.59 17.59c-0.67,-2.89 -16.74,-37.8 -19.09,-43.6 -0.57,-1.41 -1.3,-2.11 -2.42,-2.42l-9.84 0c0.48,2.08 1.2,3.21 2.12,5.02l15.62 34.37c1.41,3.57 2.87,6.42 4.36,9.92l3.44 7.3c1.54,2.74 0.84,1.19 -1.57,7.03 -1.14,2.76 -6.47,13.35 -6.52,15.31l2.78 0 10.05 -22.09c0.45,-0.96 0.75,-1.41 1.17,-2.4 6.11,-14.29 13.73,-29.85 20.11,-44.16l4.37 -10.31z"/>
   <path class="fil1" d="M377.31 22.42c0,1.76 17.42,39.31 20.75,47.1 2.41,5.64 1.48,4.88 11.79,4.88 2.14,0 0.73,-2.11 0.3,-3.06l-3.36 -7.37c-0.63,-1.49 -1.13,-2.26 -1.76,-3.8 -0.94,-2.31 -2.25,-4.88 -3.39,-7.33l-10.05 -22.48c-1.18,-2.43 -2.1,-4.82 -3.3,-7.41 -0.63,-1.36 -1.24,-2.46 -1.85,-3.7 -1.26,-2.56 -1.15,-3.08 -2.67,-3.17l-2.89 0c-1.66,0 -3.57,6.34 -3.57,6.35z"/>
   <path class="fil2" d="M76.58 47.41l-5.56 0 0 -15.87c3.65,0 8.9,-0.49 11.81,2.07 4.54,4 2.75,13.8 -6.25,13.8zm-11.11 -15.87l0 26.58c0,1.62 1.24,1.19 4.36,1.19 0.91,0 1.19,-0.28 1.19,-1.19l0 -9.52c3.74,0 4.21,-0.36 6.84,2.28 1.26,1.27 2.25,1.83 3.57,3.17 4.8,4.85 4.99,5.26 11.01,5.26 2.74,0 -1.33,-3.16 -3.66,-5.46 -1.29,-1.27 -5.11,-4.89 -6.65,-5.25 0.43,-0.3 0.03,-0.07 0.76,-0.43 0.19,-0.1 0.63,-0.28 0.82,-0.37 0.53,-0.22 1.11,-0.43 1.66,-0.73 0.77,-0.42 2.18,-1.35 2.82,-1.94 5.7,-5.23 1.57,-14.79 -9.63,-14.79l-11.9 0c-0.91,0 -1.19,0.28 -1.19,1.19z"/>
   <path class="fil2" d="M259.08 46.62c0,-4.81 -0.3,-7.18 2.44,-11.44 3.43,-5.33 11.86,-5.43 15.48,-0.53 4.83,6.52 4.25,23.88 -7.61,23.88 -6.29,0 -10.32,-5.54 -10.32,-11.9zm26.98 -1.59c0,-20.33 -32.69,-20.52 -33.25,-0.36 -0.17,6.11 3.99,11.9 9.55,14.15 2.37,0.96 3.68,0.89 6.82,1 10.12,0.38 16.89,-6.56 16.89,-14.79z"/>
   <path class="fil2" d="M154.34 59.32l1.19 0 0 -25.39c1.72,0.62 8.61,12.85 9.84,14.76 1.22,1.89 2.1,4.27 3.65,4.68 0.28,-1.07 10.26,-17.55 11.9,-19.44l0 19.84c-0.01,6.24 -1.16,5.56 5.55,5.56l0 -27.77c0,-1.58 -1.12,-1.19 -3.97,-1.19 -1.43,0 -2.64,2.62 -3.35,3.8l-8.16 13.27c-3.45,-2.31 -9.9,-17.06 -12.3,-17.06l-4.37 0 0 28.96z"/>
   <path class="fil1" d="M357.87 74.39c8.63,-4.56 16.55,-12.03 19.19,-21.68 0.45,-1.64 0.92,-4.01 1.03,-5.71 0.41,-6.48 0.01,-2.81 0.01,-6.34 -4.56,2.41 -4.14,2.3 -8.11,5.38 -7.54,5.86 -12.4,15.37 -12.25,25.11 0.01,0.9 0.12,2.15 0.12,3.23z"/>
   <path class="fil2" d="M112.68 31.54l0 26.58c0,1.99 7.04,1.19 10.71,1.19 3.97,0 7.94,0 11.9,0l0 -1.19 -13.5 0.01c-4.52,0.07 -3.56,1.48 -3.56,-11.92 0,-1.87 3.08,-1.19 6.35,-1.19 1.33,0 2.66,0.01 3.99,0.02 2.08,0.02 2.29,0.36 3.15,-0.82 -1.51,-0.85 -11.09,-0.4 -13.49,-0.4l0 -12.3 17.06 0 0 -1.19 -17.85 -0c-1.95,-0.01 -4.76,-0.62 -4.76,1.19z"/>
   <path class="fil2" d="M208.69 31.54l0 26.58c0,1.62 1.24,1.19 4.36,1.19 0.91,0 1.19,-0.28 1.19,-1.19l0 -26.58c0,-1.62 -1.24,-1.19 -4.36,-1.19 -0.91,0 -1.19,0.28 -1.19,1.19z"/>
   <path class="fil2" d="M42.45 59.32l4.37 0c-0.04,-1.89 -0.62,-2.46 -1.33,-3.83l-8.43 -18.55c-0.91,-2.19 -3.4,-9.69 -5.87,-5.53 -1.6,2.69 -0.25,3.95 0.54,5.7l8.39 18.98c0.37,0.94 1.02,3.23 2.32,3.23z"/>
   <path class="fil2" d="M217.42 46.62c1.03,1.54 2.46,2.73 3.86,4.08l8.74 7.92c1.56,1.16 5.11,0.7 7.63,0.7 -0.41,-1.12 -10.85,-10.56 -11.96,-11.45 -1.24,-0.99 -3.06,-2.76 -3.91,-4.03l10.48 -9.75c1.37,-1.06 2.94,-2 3.4,-3.74 -3.11,0.26 -5.52,4.85 -9.29,7.77 -1.81,1.4 -2.91,2.65 -4.49,4.23l-4.46 4.26z"/>
   <path class="fil2" d="M19.84 60.51c1.46,-0.39 2.77,-1.58 3.92,-2.43 1.55,-1.15 2.14,-1.91 3.29,-3.45 1.13,-1.53 1.73,-2.55 2.25,-4.49 3.18,-11.72 -5.36,-1.92 -6.58,-0.23 -2.18,3.03 -2.88,5.55 -2.88,10.61z"/>
  </g>
 </g>
</svg>
